<svg width="1140" height="342" viewBox="0 0 1140 342" fill="none" xmlns="http://www.w3.org/2000/svg">
<path d="M1139 1C1096.78 35.3564 1052.65 66.8258 1005.35 89.9395C990.016 97.4338 974.258 104.072 957.874 107.041C924.464 113.097 890.585 103.64 856.807 102.371C813.908 100.758 770.768 112.886 732.798 136.676C704.228 154.579 672.084 180.546 639.766 187.062C610.406 192.982 578.822 160.773 552.822 148.205C526.191 135.335 496.406 132.593 468.281 139.214C453.547 142.684 439.217 148.72 426.003 157.245C413.367 165.399 402.36 180.575 387.38 168.648C382.428 164.705 379.005 158.63 374.75 153.664C359.961 136.407 334.1 135.058 318.104 150.712" stroke="#2EA7E0" stroke-width="0.552088" stroke-miterlimit="10"/>
<path d="M1137.14 2.07727C1095.88 36.8946 1052.2 68.6939 1005.16 91.7227C989.5 99.4039 973.409 105.84 956.738 109.154C936.621 113.121 916.295 111.651 895.904 109.56C881.984 108.133 868.034 106.415 854.098 105.935C826.568 104.989 798.94 109.084 772.6 117.709C757.198 122.753 742.241 129.35 727.985 137.433C717.971 143.084 707.557 149.63 696.877 156.003C681.857 164.941 666.303 173.529 650.498 179.029C644.825 181.012 639.12 182.596 633.41 183.637C609.803 187.921 584.796 169.776 562.303 156.428C556.273 152.832 550.424 149.581 544.826 147.199C521.815 137.317 496.721 134.837 472.433 139.141C468.251 139.881 464.091 140.823 459.966 141.963C445.257 146.027 430.938 152.592 417.608 161.413C409.714 166.639 402.392 174.417 394.337 176.875C389.378 178.389 384.164 177.858 378.364 173.534C373.297 169.757 369.681 163.919 365.267 159.123C349.947 142.448 323.877 140.978 307.422 156.43" stroke="#2EA7E0" stroke-width="0.552088" stroke-miterlimit="10"/>
<path d="M1135.28 3.15186C1094.98 38.4326 1051.75 70.5594 1004.97 93.5033C988.981 101.374 972.559 107.609 955.6 111.263C935.225 115.596 914.596 114.538 893.883 112.738C879.74 111.51 865.555 109.936 851.385 109.494C823.395 108.616 795.307 112.354 768.53 120.203C752.874 124.791 737.672 130.795 723.168 138.185C712.956 143.336 702.37 149.324 691.533 155.127C676.276 163.255 660.509 171.008 644.422 176.004C638.656 177.809 632.858 179.257 627.046 180.208C602.976 184.112 577.482 166.843 554.58 154.569C548.454 151.255 542.508 148.314 536.824 146.194C513.5 137.494 488.347 136.06 464.091 141.378C459.917 142.29 455.766 143.406 451.647 144.712C436.96 149.37 422.653 156.464 409.21 165.584C401.244 170.989 393.798 178.806 385.593 181.385C380.536 182.974 375.234 182.523 369.345 178.423C364.157 174.81 360.352 169.213 355.779 164.584C339.93 148.492 313.649 146.9 296.738 162.148" stroke="#2EA7E0" stroke-width="0.552088" stroke-miterlimit="10"/>
<path d="M1133.42 4.22687C1094.08 39.9686 1051.3 72.4278 1004.79 95.2843C988.467 103.342 971.712 109.375 954.467 113.374C933.834 118.075 912.901 117.428 891.867 115.919C877.499 114.892 863.083 113.461 848.677 113.053C820.228 112.245 791.679 115.625 764.466 122.695C748.554 126.829 733.124 132.288 718.355 138.935C707.956 143.618 697.185 149.013 686.195 154.249C670.7 161.566 654.723 168.486 638.353 172.974C632.498 174.602 626.603 175.914 620.693 176.778C596.156 180.301 570.154 163.98 546.865 152.706C540.638 149.69 534.604 147.031 528.83 145.183C505.209 137.618 479.979 137.276 455.76 143.61C451.592 144.697 447.448 145.983 443.338 147.456C428.675 152.708 414.381 160.331 400.823 169.75C392.787 175.334 385.218 183.19 376.86 185.891C371.706 187.557 366.317 187.189 360.336 183.304C355.028 179.859 351.033 174.497 346.302 170.036C329.922 154.526 303.433 152.81 286.062 167.86" stroke="#2EA7E0" stroke-width="0.552088" stroke-miterlimit="10"/>
<path d="M1131.55 5.30414C1093.18 41.5068 1050.86 74.296 1004.6 97.07C987.95 105.316 970.871 111.188 953.331 115.487C932.448 120.603 911.206 120.32 889.848 119.104C875.258 118.277 860.608 116.991 845.968 116.62C817.06 115.882 788.05 118.905 760.4 125.196C744.233 128.874 728.559 133.756 713.542 139.695C702.946 143.887 692.001 148.713 680.855 153.383C665.124 159.89 648.933 165.975 632.28 169.956C626.334 171.407 620.343 172.583 614.335 173.357C589.335 176.499 562.842 161.076 539.146 150.852C532.821 148.123 526.698 145.758 520.835 144.181C496.921 137.751 471.611 138.501 447.424 145.85C443.262 147.109 439.127 148.567 435.024 150.207C420.386 156.054 406.102 164.206 392.43 173.92C384.323 179.685 376.632 187.577 368.122 190.401C362.869 192.145 357.391 191.859 351.322 188.193C345.893 184.915 341.711 179.791 336.82 175.497C319.909 160.569 293.211 158.733 275.384 173.578" stroke="#2EA7E0" stroke-width="0.552088" stroke-miterlimit="10"/>
<path d="M1129.69 6.37878C1092.28 43.0449 1050.41 76.164 1004.41 98.8507C987.433 107.284 970.025 112.963 952.196 117.595C931.056 123.088 909.508 123.207 887.829 122.282C873.016 121.656 858.133 120.514 843.257 120.176C813.891 119.509 784.421 122.173 756.334 127.688C739.911 130.912 723.995 135.211 708.73 140.444C697.938 144.144 686.826 148.436 675.515 152.505C659.558 158.247 643.14 163.403 626.21 166.925C620.17 168.182 614.087 169.24 607.978 169.924C582.511 172.685 555.532 158.157 531.427 148.989C525.006 146.546 518.789 144.474 512.837 143.169C488.632 137.868 463.24 139.716 439.086 148.082C434.933 149.516 430.806 151.143 426.707 152.951C412.093 159.395 397.819 168.075 384.034 178.086C375.855 184.03 368.04 191.961 359.379 194.906C354.029 196.728 348.461 196.524 342.305 193.077C336.753 189.966 332.384 185.08 327.335 180.953C309.895 166.608 282.987 164.65 264.7 179.294" stroke="#2EA7E0" stroke-width="0.552088" stroke-miterlimit="10"/>
<path d="M1127.83 7.45605C1091.38 44.5831 1049.96 78.0321 1004.23 100.634C986.918 109.256 969.179 114.739 951.06 119.708C929.664 125.577 907.811 126.096 885.81 125.465C870.773 125.038 855.657 124.041 840.549 123.74C810.723 123.144 780.793 125.451 752.268 130.184C735.59 132.952 719.428 136.672 703.917 141.199C692.927 144.406 681.643 148.135 670.177 151.631C653.983 156.571 637.352 160.877 620.139 163.9C614.01 164.977 607.829 165.904 601.622 166.496C575.692 168.876 548.227 155.244 523.71 147.128C517.194 144.971 510.887 143.191 504.841 142.162C480.347 137.989 454.872 140.937 430.751 150.316C426.603 151.922 422.484 153.723 418.394 155.695C403.805 162.733 389.543 171.943 375.641 182.251C367.391 188.375 359.455 196.345 350.641 199.411C345.195 201.311 339.531 201.192 333.29 197.961C327.614 195.02 323.06 190.367 317.854 186.407C299.882 172.644 272.765 170.562 254.022 185.007" stroke="#2EA7E0" stroke-width="0.552088" stroke-miterlimit="10"/>
<path d="M1125.97 8.5307C1090.47 46.1187 1049.51 79.8977 1004.04 102.415C986.399 111.224 968.33 116.51 949.923 121.816C928.27 128.059 906.112 128.983 883.79 128.643C868.529 128.418 853.18 127.564 837.836 127.297C807.552 126.771 777.161 128.719 748.2 132.676C731.268 134.99 714.859 138.127 699.1 141.948C687.911 144.663 676.454 147.829 664.833 150.755C648.4 154.889 631.56 158.349 614.065 160.872C607.846 161.77 601.568 162.563 595.261 163.065C568.864 165.065 540.917 152.325 515.989 145.265C509.377 143.392 502.979 141.905 496.841 141.15C472.06 138.101 446.498 142.152 422.411 152.548C418.27 154.327 414.159 156.301 410.077 158.439C395.512 166.071 381.26 175.81 367.245 186.415C358.923 192.718 350.863 200.726 341.898 203.914C336.355 205.889 330.597 205.86 324.272 202.839C318.47 200.069 313.733 195.651 308.368 191.859C289.868 178.675 262.541 176.475 243.338 190.716" stroke="#2EA7E0" stroke-width="0.552088" stroke-miterlimit="10"/>
<path d="M1124.11 9.60529C1089.57 47.6567 1049.07 81.7656 1003.85 104.198C985.884 113.196 967.485 118.284 948.789 123.929C926.88 130.543 904.417 131.875 881.773 131.829C866.29 131.802 850.707 131.094 835.127 130.863C804.383 130.407 773.532 131.996 744.133 135.177C726.945 137.035 710.29 139.588 694.287 142.708C682.899 144.927 671.27 147.533 659.495 149.886C642.824 153.218 625.774 155.83 607.994 157.851C601.683 158.57 595.312 159.229 588.905 159.642C562.045 161.26 533.615 149.411 508.272 143.409C501.565 141.82 495.077 140.626 488.848 140.146C463.78 138.214 438.132 143.375 414.079 154.787C409.946 156.74 405.844 158.885 401.765 161.19C387.225 169.417 372.983 179.684 358.854 190.587C350.461 197.07 342.279 205.115 333.161 208.427C327.52 210.479 321.667 210.54 315.261 207.73C309.333 205.132 304.412 200.944 298.889 197.322C279.857 184.721 252.321 182.399 232.662 196.439" stroke="#2EA7E0" stroke-width="0.552088" stroke-miterlimit="10"/>
<path d="M1122.25 10.6826C1088.67 49.195 1048.62 83.6339 1003.66 105.981C985.365 115.166 966.637 120.057 947.65 126.04C925.484 133.025 902.715 134.765 879.75 135.01C864.043 135.184 848.227 134.617 832.414 134.422C801.213 134.037 769.899 135.269 740.065 137.669C722.623 139.073 705.722 141.041 689.472 143.46C677.884 145.185 666.083 147.23 654.153 149.011C637.244 151.536 619.985 153.305 601.92 154.824C595.519 155.362 589.05 155.889 582.544 156.212C555.217 157.449 526.305 146.488 500.549 141.548C493.748 140.243 487.167 139.34 480.846 139.136C455.495 138.321 429.758 144.593 405.738 157.019C401.611 159.145 397.516 161.462 393.446 163.934C378.93 172.755 364.701 183.554 350.455 194.753C341.994 201.415 333.684 209.499 324.417 212.932C318.678 215.062 312.729 215.213 306.24 212.614C300.183 210.188 295.081 206.233 289.4 202.776C269.839 190.757 242.091 188.312 221.974 202.15" stroke="#2EA7E0" stroke-width="0.552088" stroke-miterlimit="10"/>
<path d="M1120.39 11.7576C1087.77 50.7309 1048.18 85.5022 1003.48 107.762C984.85 117.136 965.792 121.829 946.516 128.151C924.092 135.507 901.022 137.654 877.731 138.19C861.801 138.564 845.752 138.142 829.704 137.984C798.042 137.669 766.269 138.542 735.997 140.165C718.298 141.114 701.151 142.494 684.657 144.215C672.87 145.442 660.896 146.929 648.811 148.14C631.662 149.858 614.195 150.784 595.847 151.803C589.357 152.163 582.79 152.556 576.186 152.788C548.395 153.645 519.003 143.569 492.83 139.692C485.933 138.671 479.262 138.059 472.848 138.132C447.214 138.428 421.387 145.816 397.4 159.259C393.279 161.559 389.193 164.046 385.131 166.685C370.639 176.101 356.42 187.429 342.063 198.924C333.53 205.765 325.099 213.888 315.678 217.442C309.842 219.65 303.798 219.893 297.226 217.503C291.042 215.252 285.753 211.54 279.918 208.238C259.806 196.852 231.871 194.234 211.294 207.871" stroke="#2EA7E0" stroke-width="0.552088" stroke-miterlimit="10"/>
<path d="M1118.53 12.8322C1086.87 52.2689 1047.73 87.3677 1003.29 109.543C984.334 119.104 964.943 123.597 945.38 130.259C922.7 137.984 899.325 140.541 875.712 141.368C859.558 141.943 843.278 141.664 826.993 141.541C794.874 141.296 762.638 141.81 731.931 142.657C713.978 143.152 696.58 143.943 679.844 144.964C667.857 145.694 655.71 146.621 643.473 147.262C626.086 148.171 608.409 148.259 589.776 148.773C583.195 148.955 576.534 149.212 569.829 149.355C541.572 149.831 511.699 140.638 485.111 137.826C478.121 137.086 471.358 136.766 464.85 137.12C438.934 138.523 413.015 147.031 389.063 161.488C384.95 163.961 380.871 166.622 376.816 169.427C362.348 179.437 348.139 191.293 333.668 203.087C325.064 210.108 316.509 218.267 306.938 221.945C301.005 224.23 294.862 224.568 288.211 222.382C281.896 220.307 276.428 216.824 270.435 213.687C249.793 202.883 221.646 200.144 200.614 213.58" stroke="#2EA7E0" stroke-width="0.552088" stroke-miterlimit="10"/>
<path d="M1116.66 13.9094C1085.97 53.8071 1047.28 89.2383 1003.1 111.328C983.817 121.079 964.095 125.371 944.243 132.375C921.306 140.468 897.626 143.433 873.691 144.554C857.315 145.328 840.801 145.195 824.282 145.107C791.703 144.933 759.008 145.09 727.863 145.158C709.653 145.197 692.009 145.401 675.027 145.723C662.841 145.956 650.521 146.323 638.129 146.393C620.502 146.495 602.617 145.743 583.702 145.753C577.031 145.755 570.272 145.879 563.469 145.935C534.748 146.029 504.395 137.717 477.392 135.975C470.308 135.517 463.454 135.488 456.854 136.121C430.655 138.627 404.647 148.259 380.727 163.733C376.62 166.379 372.55 169.211 368.5 172.183C354.057 182.79 339.861 195.173 325.274 207.265C316.598 214.465 307.921 222.663 298.197 226.463C292.167 228.823 285.924 229.257 279.194 227.278C272.751 225.383 267.101 222.125 260.949 219.155C239.779 208.936 211.422 206.071 189.93 219.305" stroke="#2EA7E0" stroke-width="0.552088" stroke-miterlimit="10"/>
<path d="M1114.8 14.984C1085.07 55.3427 1046.8 90.9995 1002.92 113.109C983.286 123 963.248 127.137 943.109 134.483C919.914 142.943 895.931 146.32 871.675 147.735C855.075 148.71 838.326 148.72 821.574 148.666C788.536 148.562 755.381 148.36 723.799 147.65C705.335 147.235 687.443 146.844 670.216 146.473C657.831 146.206 645.338 146.012 632.793 145.517C614.926 144.811 596.836 143.219 577.633 142.725C570.873 142.55 564.017 142.538 557.114 142.504C527.927 142.217 497.096 134.784 469.675 134.112C462.498 133.935 455.552 134.197 448.859 135.109C422.376 138.717 396.279 149.474 372.393 165.962C368.293 168.781 364.231 171.785 360.189 174.924C345.771 186.126 331.584 199.037 316.883 211.425C308.136 218.806 299.335 227.042 289.461 230.963C283.333 233.401 276.992 233.932 270.183 232.157C263.609 230.441 257.781 227.409 251.472 224.606C229.772 214.972 201.204 211.983 179.256 225.016" stroke="#2EA7E0" stroke-width="0.552088" stroke-miterlimit="10"/>
<path d="M1112.94 16.059C1084.17 56.8811 1046.35 92.8654 1002.73 114.89C982.767 124.968 962.4 128.903 941.972 136.592C918.518 145.418 894.231 149.207 869.654 150.913C852.83 152.087 835.85 152.242 818.861 152.226C785.364 152.189 751.749 151.634 719.729 150.144C701.009 149.273 682.868 148.29 665.399 147.225C652.812 146.456 640.148 145.706 627.449 144.641C609.341 143.125 591.044 140.699 571.556 139.697C564.704 139.345 557.755 139.2 550.752 139.073C521.101 138.406 489.79 131.851 461.952 132.249C454.679 132.353 447.644 132.906 440.857 134.097C414.09 138.802 387.905 150.69 364.052 168.194C359.959 171.186 355.905 174.362 351.87 177.668C337.476 189.464 323.3 202.907 308.484 215.591C299.667 223.149 290.743 231.424 280.716 235.468C274.491 237.984 268.05 238.615 261.163 237.041C254.458 235.507 248.454 232.695 241.985 230.061C219.756 221.009 190.978 217.898 168.57 230.728" stroke="#2EA7E0" stroke-width="0.552088" stroke-miterlimit="10"/>
<path d="M1111.08 17.136C1083.26 58.419 1045.9 94.7357 1002.54 116.673C982.252 126.938 961.553 130.672 940.838 138.704C917.126 147.897 892.536 152.099 867.637 154.096C850.59 155.471 833.377 155.77 816.154 155.787C782.199 155.821 748.122 154.906 715.665 152.64C696.69 151.315 678.301 149.739 660.588 147.98C647.802 146.711 634.965 145.401 622.111 143.768C603.765 141.439 585.259 138.18 565.488 136.671C558.546 136.142 551.499 135.861 544.399 135.645C514.282 134.597 482.492 128.915 454.237 130.388C446.87 130.771 439.744 131.615 432.863 133.09C405.813 138.889 379.536 151.91 355.718 170.431C351.632 173.597 347.586 176.945 343.559 180.417C329.189 192.807 315.025 206.779 300.094 219.761C291.205 227.498 282.159 235.813 271.98 239.978C265.657 242.572 259.116 243.305 252.15 241.929C245.314 240.578 239.132 237.989 232.503 235.522C209.745 227.052 180.756 223.818 157.892 236.448" stroke="#2EA7E0" stroke-width="0.552088" stroke-miterlimit="10"/>
<path d="M1109.22 18.2109C1082.36 59.9549 1045.49 96.7059 1002.35 118.454C981.749 128.956 960.702 132.438 939.701 140.813C915.73 150.372 890.839 154.986 865.616 157.274C848.347 158.849 830.9 159.29 813.441 159.346C779.027 159.45 744.49 158.177 711.597 155.132C692.366 153.351 673.731 151.18 655.771 148.729C642.785 146.956 629.775 145.09 616.769 142.892C598.183 139.753 579.469 135.66 559.413 133.644C552.382 132.938 545.237 132.52 538.037 132.215C507.456 130.786 475.186 125.977 446.514 128.527C439.054 129.192 431.833 130.325 424.863 132.081C397.528 138.972 371.164 153.128 347.378 172.663C343.3 176.002 339.261 179.522 335.239 183.161C320.894 196.146 306.74 210.647 291.695 223.925C282.735 231.841 273.565 240.194 263.237 244.481C256.818 247.15 250.176 247.987 243.133 246.808C236.167 245.641 229.809 243.256 223.018 240.973C199.743 233.03 170.532 229.731 147.208 242.157" stroke="#2EA7E0" stroke-width="0.552088" stroke-miterlimit="10"/>
<path d="M1107.36 19.2858C1081.46 61.4932 1045.04 98.5742 1002.16 120.237C981.234 130.927 959.856 134.207 938.565 142.926C914.336 152.849 889.142 157.876 863.598 160.46C846.104 162.236 828.424 162.821 810.731 162.91C775.858 163.085 740.859 161.455 707.529 157.631C688.043 155.397 669.16 152.628 650.956 149.486C637.771 147.211 624.59 144.785 611.427 142.021C592.603 138.069 573.679 133.144 553.341 130.621C546.22 129.738 538.979 129.185 531.68 128.789C500.633 126.979 467.882 123.039 438.797 126.669C431.241 127.613 423.931 129.034 416.868 131.075C389.246 139.054 362.796 154.348 339.043 174.9C334.971 178.413 330.941 182.103 326.926 185.908C312.605 199.487 298.464 214.516 283.303 228.093C274.271 236.189 264.979 244.579 254.498 248.989C247.982 251.736 241.24 252.677 234.119 251.694C227.023 250.714 220.486 248.545 213.537 246.43C189.733 239.069 160.31 235.648 136.528 247.873" stroke="#2EA7E0" stroke-width="0.552088" stroke-miterlimit="10"/>
<path d="M1105.5 20.3632C1080.56 63.0315 1044.6 100.442 1001.98 122.02C980.719 132.899 959.009 135.973 937.431 145.037C912.943 155.324 887.446 160.766 861.581 163.641C843.863 165.615 825.951 166.346 808.024 166.472C772.691 166.717 737.232 164.728 703.467 160.128C683.725 157.437 664.597 154.072 646.147 150.241C632.763 147.461 619.409 144.479 606.093 141.148C587.029 136.381 567.897 130.628 547.274 127.598C540.062 126.538 532.725 125.849 525.326 125.364C493.813 123.173 460.583 120.101 431.082 124.81C423.433 126.031 416.029 127.744 408.874 130.068C380.965 139.132 354.43 155.569 330.711 177.135C326.645 180.82 322.624 184.682 318.617 188.654C304.321 202.827 290.189 218.389 274.916 232.259C265.813 240.534 256.397 248.963 245.766 253.495C239.152 256.319 232.312 257.367 225.11 256.578C217.883 255.787 211.168 253.834 204.059 251.886C179.724 245.105 150.094 241.563 125.854 253.589" stroke="#2EA7E0" stroke-width="0.552088" stroke-miterlimit="10"/>
<path d="M1103.63 21.4378C1079.66 64.5671 1044.15 102.308 1001.79 123.801C980.2 134.867 958.156 137.737 936.292 147.148C911.546 157.798 885.745 163.655 859.558 166.821C841.617 168.997 823.472 169.871 805.309 170.031C769.519 170.346 733.598 168 699.395 162.619C679.398 159.475 660.022 155.511 641.328 150.991C627.746 147.706 614.217 144.166 600.747 140.272C581.445 134.692 562.104 128.11 541.197 124.57C533.896 123.333 526.461 122.508 518.964 121.933C486.987 119.361 453.275 117.158 423.359 122.949C415.614 124.449 408.121 126.45 400.872 129.058C372.674 139.207 346.054 156.787 322.37 179.369C318.312 183.229 314.296 187.264 310.298 191.4C296.026 206.171 281.904 222.258 266.517 236.427C257.343 244.882 247.805 253.349 237.021 258.005C230.31 260.906 223.37 262.061 216.091 261.467C208.732 260.865 201.839 259.126 194.572 257.347C169.708 251.149 139.865 247.485 115.168 259.308" stroke="#2EA7E0" stroke-width="0.552088" stroke-miterlimit="10"/>
<path d="M1101.77 22.5124C1078.76 66.1051 1043.7 104.176 1001.61 125.582C979.686 136.836 957.31 139.5 935.159 149.256C910.152 160.27 884.05 166.542 857.541 169.999C839.377 172.374 821 173.393 802.603 173.59C766.352 173.976 729.972 171.271 695.333 165.113C675.08 161.513 655.46 156.951 636.52 151.743C622.738 147.953 609.038 143.855 595.412 139.396C575.871 133.001 556.32 125.591 535.129 121.542C527.736 120.13 520.208 119.167 512.609 118.502C480.166 115.55 445.971 114.213 415.643 121.086C407.804 122.862 400.217 125.155 392.878 128.049C364.39 139.282 337.688 158.004 314.036 181.601C309.984 185.633 305.979 189.84 301.985 194.144C287.735 209.509 273.628 226.125 258.125 240.592C248.882 249.227 239.217 257.73 228.283 262.51C221.474 265.489 214.434 266.753 207.078 266.348C199.589 265.938 192.517 264.412 185.091 262.799C159.695 257.182 129.646 253.397 104.49 265.019" stroke="#2EA7E0" stroke-width="0.552088" stroke-miterlimit="10"/>
<path d="M1099.91 23.5897C1077.86 67.6434 1043.25 106.044 1001.42 127.367C979.166 138.809 956.459 141.267 934.021 151.371C908.755 162.748 882.351 169.436 855.52 173.187C837.134 175.764 818.521 176.926 799.89 177.156C763.182 177.613 726.339 174.548 691.263 167.614C670.755 163.56 650.889 158.398 631.701 152.502C617.722 148.208 603.849 143.552 590.067 138.528C570.291 131.317 550.526 123.08 529.052 118.522C521.569 116.933 513.944 115.834 506.247 115.079C473.34 111.746 438.661 111.272 407.919 119.23C399.985 121.285 392.304 123.866 384.876 127.045C356.097 139.357 329.313 159.227 305.694 183.84C301.649 188.047 297.652 192.424 293.665 196.895C279.44 212.854 265.343 230 249.726 244.763C240.412 253.577 230.625 262.119 219.538 267.02C212.633 270.075 205.494 271.45 198.056 271.237C190.439 271.018 183.186 269.703 175.603 268.26C149.676 263.226 119.417 259.32 93.804 270.737" stroke="#2EA7E0" stroke-width="0.552088" stroke-miterlimit="10"/>
<path d="M1098.05 24.6643C1076.96 69.1789 1042.81 107.912 1001.23 129.148C978.652 140.779 955.611 143.03 932.885 153.48C907.359 165.217 880.655 172.323 853.502 176.365C834.891 179.141 816.046 180.446 797.179 180.715C760.011 181.242 722.71 177.821 687.197 170.106C666.433 165.596 646.322 159.834 626.888 153.252C612.711 148.45 598.663 143.239 584.727 137.652C564.712 129.626 544.738 120.564 522.982 115.494C515.407 113.73 507.686 112.495 499.89 111.651C466.517 107.936 431.355 108.325 400.202 117.369C392.172 119.701 384.4 122.571 376.881 126.035C347.808 139.427 320.945 160.445 297.361 186.075C293.323 190.454 289.332 195.003 285.354 199.642C271.153 216.195 257.066 233.869 241.335 248.931C231.95 257.924 222.039 266.506 210.801 271.528C203.799 274.66 196.562 276.147 189.045 276.123C181.297 276.099 173.865 274.995 166.124 273.716C139.668 269.264 109.197 265.234 83.1279 276.453" stroke="#2EA7E0" stroke-width="0.552088" stroke-miterlimit="10"/>
<path d="M1096.19 25.7393C1076.06 70.7173 1042.36 109.778 1001.04 130.929C978.135 142.747 954.744 144.738 931.75 155.588C905.945 167.629 878.958 175.208 851.483 179.544C832.648 182.521 813.572 183.969 794.471 184.272C756.844 184.869 719.082 181.089 683.131 172.598C662.113 167.634 641.758 161.27 622.075 154.001C607.701 148.693 593.48 142.926 579.389 136.773C559.139 127.933 538.943 118.097 516.911 112.464C509.243 110.54 501.43 109.152 493.534 108.218C459.697 104.123 424.049 105.375 392.486 115.506C384.36 118.114 376.496 121.275 368.885 125.024C339.519 139.496 312.575 161.661 289.025 188.304C284.994 192.856 281.013 197.58 277.039 202.383C262.862 219.531 248.788 237.737 232.941 253.094C223.484 262.267 213.451 270.885 202.061 276.031C194.961 279.241 187.626 280.839 180.029 281.004C172.152 281.174 164.541 280.281 156.64 279.17C129.654 275.301 98.9751 271.149 72.446 282.167" stroke="#2EA7E0" stroke-width="0.552088" stroke-miterlimit="10"/>
<path d="M1094.33 26.8165C1075.15 72.2555 1041.91 111.646 1000.85 132.712C977.618 144.719 953.895 146.51 930.614 157.701C904.551 170.109 877.261 178.1 849.464 182.727C830.406 185.903 811.097 187.497 791.76 187.836C753.674 188.503 715.451 184.367 679.064 175.097C657.79 169.677 637.193 162.714 617.262 154.758C602.691 148.943 588.307 142.589 574.049 135.903C553.577 126.203 533.153 115.579 510.84 109.441C503.083 107.34 495.172 105.816 487.177 104.792C452.874 100.316 416.741 102.429 384.766 113.648C376.545 116.532 368.588 119.982 360.889 124.019C331.228 139.568 304.207 162.884 280.689 190.544C276.664 195.27 272.692 200.163 268.725 205.135C254.574 222.877 240.509 241.611 224.548 257.265C215.02 266.618 204.865 275.274 193.322 280.541C186.124 283.828 178.692 285.539 171.014 285.891C163.008 286.257 155.216 285.57 147.157 284.629C119.641 281.342 88.7508 277.067 61.7639 287.883" stroke="#2EA7E0" stroke-width="0.552088" stroke-miterlimit="10"/>
<path d="M1092.47 27.8912C1074.25 73.7911 1041.47 113.514 1000.67 134.495C977.103 146.689 953.049 148.278 929.481 159.812C903.159 172.588 875.566 180.99 847.447 185.91C828.167 189.287 808.623 191.024 789.051 191.398C750.505 192.135 711.823 187.64 674.999 177.593C653.47 171.719 632.629 164.152 612.447 155.513C597.68 149.19 583.122 142.283 568.707 135.031C547.997 124.519 527.363 113.063 504.766 106.418C496.917 104.14 488.911 102.48 480.817 101.366C446.05 96.5094 409.429 99.4814 377.045 111.789C368.728 114.95 360.678 118.689 352.889 123.012C322.931 139.639 295.834 164.104 272.35 192.778C268.333 197.677 264.366 202.742 260.408 207.881C246.281 226.218 232.227 245.481 216.154 261.433C206.554 270.965 196.275 279.66 184.582 285.049C177.286 288.414 169.756 290.238 161.999 290.777C153.865 291.342 145.891 290.862 137.674 290.085C109.627 287.38 78.5288 282.984 51.084 293.598" stroke="#2EA7E0" stroke-width="0.552088" stroke-miterlimit="10"/>
<path d="M1090.61 28.9658C1073.35 75.3292 1041.02 115.38 1000.48 136.276C976.584 148.659 952.198 150.044 928.343 161.923C901.763 175.065 873.866 183.879 845.426 189.09C825.922 192.669 806.146 194.549 786.341 194.959C747.337 195.767 708.192 190.912 670.932 180.087C649.147 173.757 628.064 165.591 607.634 156.265C592.67 149.435 577.938 141.977 563.369 134.156C542.422 122.833 521.575 110.542 498.697 103.392C490.758 100.937 482.655 99.1416 474.462 97.9383C439.229 92.7002 402.121 96.5335 369.331 109.928C360.916 113.366 352.773 117.393 344.896 122.003C314.64 139.704 287.468 165.322 264.016 195.013C260.005 200.086 256.049 205.321 252.097 210.627C237.994 229.561 223.952 249.351 207.763 265.601C198.093 275.313 187.691 284.044 175.845 289.556C168.454 292.997 160.827 294.94 152.988 295.663C144.725 296.425 136.571 296.151 128.194 295.544C99.616 293.421 68.3087 288.904 40.406 299.314" stroke="#2EA7E0" stroke-width="0.552088" stroke-miterlimit="10"/>
<path d="M1088.74 30.0431C1072.45 76.8674 1040.57 117.25 1000.29 138.059C976.067 150.629 951.349 151.813 927.208 164.033C900.369 177.542 872.169 186.769 843.406 192.271C823.678 196.049 803.669 198.074 783.628 198.521C744.164 199.397 704.56 194.188 666.862 182.584C644.823 175.8 623.509 166.991 602.817 157.022C587.668 149.656 572.751 141.674 558.025 133.285C536.84 121.151 515.784 108.024 492.621 100.369C484.59 97.7369 476.393 95.8057 468.1 94.5126C432.403 88.8937 394.785 93.5155 361.608 108.072C353.091 111.767 344.861 116.103 336.894 120.999C306.339 139.777 279.092 166.544 255.677 197.249C251.672 202.495 247.724 207.905 243.778 213.376C229.699 232.904 215.667 253.223 199.365 269.769C189.623 279.658 179.097 288.431 167.101 294.064C159.612 297.582 151.889 299.639 143.966 300.549C135.578 301.512 127.24 301.442 118.705 301.003C89.5975 299.462 58.0806 294.821 29.72 305.033" stroke="#2EA7E0" stroke-width="0.552088" stroke-miterlimit="10"/>
<path d="M1086.88 31.118C1071.55 78.4033 1040.12 119.116 1000.11 139.84C975.552 152.599 950.501 153.582 926.072 166.144C898.975 180.019 870.472 189.656 841.387 195.452C821.435 199.431 801.195 201.6 780.917 202.08C740.995 203.026 700.929 197.458 662.794 185.078C640.5 177.838 618.943 168.437 598.002 157.774C582.656 149.906 567.566 141.366 552.685 132.411C531.264 119.468 509.994 105.506 486.548 97.3441C478.428 94.5322 470.133 92.4676 461.743 91.0847C425.58 85.0849 387.477 90.58 353.889 106.212C345.276 110.188 336.945 114.79 328.898 119.99C298.01 139.77 270.724 167.763 247.341 199.484C243.344 204.904 239.402 210.484 235.464 216.12C221.41 236.242 207.391 257.093 190.972 273.935C181.159 284.003 170.511 292.815 158.362 298.57C150.775 302.165 142.957 304.339 134.953 305.431C126.438 306.593 117.917 306.726 109.226 306.455C79.587 305.496 47.8605 300.734 19.042 310.744" stroke="#2EA7E0" stroke-width="0.552088" stroke-miterlimit="10"/>
<path d="M1085.02 32.193C1070.65 79.9416 1039.68 120.982 999.918 141.621C975.036 154.567 949.652 155.348 924.934 168.253C897.579 182.497 868.775 192.543 839.366 198.63C819.193 202.808 798.716 205.12 778.207 205.639C737.825 206.656 697.299 200.729 658.728 187.57C636.178 179.876 614.376 169.881 593.189 158.524C577.646 150.156 562.381 141.058 547.346 131.533C525.686 117.78 504.206 102.983 480.478 94.314C472.266 91.325 463.876 89.1245 455.385 87.6519C418.758 81.2712 380.17 87.6422 346.17 104.346C337.462 108.602 329.037 113.495 320.901 118.978C289.721 139.857 262.354 168.976 239.004 201.714C235.013 207.306 231.081 213.059 227.149 218.862C213.12 239.579 199.11 260.958 182.578 278.098C172.693 288.346 161.922 297.194 149.622 303.073C141.937 306.746 134.025 309.036 125.938 310.312C117.297 311.676 108.593 312.013 99.7425 311.909C69.5748 311.53 37.6387 306.649 8.3623 316.455" stroke="#2EA7E0" stroke-width="0.552088" stroke-miterlimit="10"/>
<path d="M1083.16 33.27C1069.75 81.4796 1039.23 122.852 999.731 143.407C974.519 156.542 948.804 157.119 923.799 170.366C896.185 184.976 867.078 195.435 837.348 201.816C816.95 206.195 796.241 208.65 775.496 209.203C734.656 210.29 693.67 204.006 654.66 190.068C631.855 181.919 609.808 171.331 588.372 159.281C572.631 150.411 557.193 140.755 542.001 130.662C520.106 116.098 498.412 100.464 474.401 91.2909C466.1 88.1248 457.614 85.7909 449.024 84.226C411.931 77.4644 372.858 84.7112 338.447 102.49C329.643 107.027 321.126 112.211 312.899 117.973C281.426 139.952 253.98 170.198 230.662 203.953C226.677 209.718 222.754 215.642 218.83 221.613C204.825 242.924 190.826 264.832 174.179 282.268C164.223 292.696 153.33 301.583 140.877 307.583C133.095 311.334 125.091 313.76 116.916 315.201C108.151 316.785 99.2622 317.304 90.253 317.37C59.5541 317.574 27.4083 312.571 -2.32593 322.176" stroke="#2EA7E0" stroke-width="0.552088" stroke-miterlimit="10"/>
<path d="M1081.3 34.3448C1068.85 83.0154 1038.78 124.718 999.543 145.187C974.001 158.509 947.957 158.885 922.663 172.477C894.791 187.453 865.38 198.324 835.328 204.996C774.116 218.588 710.079 214.754 650.594 192.562C610.581 177.634 572.889 154.95 536.663 129.786C514.53 114.412 492.627 97.9434 468.332 88.2631C423.669 70.4675 373.61 77.4159 330.732 100.627C287.853 123.837 251.71 162.309 222.33 206.185C195.667 246 171.718 292.863 132.142 312.088C86.8807 334.074 34.2866 313.158 -13 327.887" stroke="#2EA7E0" stroke-width="0.552088" stroke-miterlimit="10"/>
<path d="M986.814 342C987.313 280.486 969.069 218.993 936.237 171.535C926.896 158.034 915.941 145.268 902.127 139.345C862.212 122.236 819.589 159.638 786.029 180.873C745.53 206.498 705.488 233.353 663.319 254.977C639.645 267.117 611.84 277.421 588.94 263.33C565.75 249.06 556.926 215.832 547.339 186.895C536.169 153.177 520.786 120.696 498.205 96.4151C475.624 72.1344 445.098 56.8061 414.869 60.7582C391.197 63.854 369.628 78.173 349.93 94.1297C298.177 136.058 254.209 191.565 222.057 255.564" stroke="#2EA7E0" stroke-width="0.552088" stroke-miterlimit="10"/>
<path d="M988.109 339.341C988.55 284.973 972.508 231.764 944.064 186.128C941.422 181.89 938.703 177.722 935.867 173.667C926.54 160.35 915.679 147.747 902.06 141.778C862.674 124.497 820.703 159.943 787.189 180.417C757.477 198.569 727.975 217.736 697.425 235.085C686.826 241.128 676.136 246.949 665.31 252.439C641.825 264.346 614.35 274.512 591.62 261.078C568.606 247.475 559.495 215.533 549.643 187.729C538.161 155.333 522.601 124.114 500.063 100.77C492.216 92.642 483.434 85.5577 474.055 79.9364C456.504 69.4118 436.858 64.0016 417.336 66.4617C393.886 69.4167 372.473 83.1559 352.902 98.3847C313.279 129.194 278.266 167.437 249.401 211.491C240.786 224.636 232.721 238.295 225.25 252.432" stroke="#2EA7E0" stroke-width="0.552088" stroke-miterlimit="10"/>
<path d="M989.401 336.684C989.828 284.129 972.931 233.867 943.679 188.069C941.023 183.913 938.321 179.798 935.494 175.805C926.18 162.675 915.414 150.231 901.989 144.214C863.129 126.758 821.816 160.251 788.347 179.966C758.947 197.283 729.703 215.943 699.169 232.926C688.648 238.826 678.037 244.523 667.298 249.906C644.003 261.583 616.855 271.608 594.298 258.832C571.459 245.893 562.061 215.237 551.947 188.569C540.156 157.495 524.414 127.537 501.921 105.132C494.088 97.3317 485.349 90.5313 476.033 85.138C458.607 75.0356 439.141 69.8292 419.804 72.1728C396.576 74.9895 375.322 88.1464 355.875 102.645C316.488 131.97 281.705 168.112 252.756 210.139C244.118 222.68 236 235.74 228.446 249.304" stroke="#2EA7E0" stroke-width="0.552088" stroke-miterlimit="10"/>
<path d="M990.695 334.025C991.106 283.283 973.367 235.968 943.297 190.008C940.629 185.929 937.942 181.87 935.126 177.94C925.825 164.994 915.152 152.716 901.924 146.65C863.593 129.022 822.941 160.562 789.509 179.512C760.426 195.998 731.404 214.063 700.919 230.767C690.463 236.497 679.944 242.097 669.29 247.374C646.184 258.818 619.364 268.704 596.982 256.586C574.318 244.312 564.633 214.943 554.254 189.408C542.152 159.657 526.234 130.961 503.785 109.492C495.964 102.019 487.27 95.5027 478.017 90.335C460.713 80.6547 441.433 75.652 422.277 77.8817C399.27 80.5601 378.175 93.1347 358.852 106.903C319.7 134.745 285.148 168.784 256.116 208.788C247.453 220.725 239.284 233.185 231.647 246.18" stroke="#2EA7E0" stroke-width="0.552088" stroke-miterlimit="10"/>
<path d="M991.987 331.368C992.384 282.438 973.81 238.066 942.91 191.948C940.23 187.95 937.558 183.944 934.751 180.077C925.463 167.318 914.885 155.2 901.852 149.086C864.051 131.285 824.064 160.877 790.665 179.061C761.904 194.719 733.12 212.243 702.661 228.607C692.278 234.187 681.844 239.67 671.276 244.84C648.359 256.054 621.869 265.802 599.658 254.339C577.169 242.732 567.197 214.649 556.554 190.247C544.14 161.818 528.045 134.381 505.639 113.851C497.832 106.704 489.183 100.473 479.991 95.5314C462.811 86.2757 443.714 81.4768 424.739 83.5876C401.953 86.1253 381.016 98.1201 361.819 111.158C322.903 137.516 288.581 169.453 259.464 207.432C250.774 218.764 242.555 230.626 234.833 243.047" stroke="#2EA7E0" stroke-width="0.552088" stroke-miterlimit="10"/>
<path d="M993.28 328.71C993.662 281.592 974.262 240.161 942.525 193.887C939.835 189.967 937.175 186.019 934.381 182.213C925.107 169.638 914.621 157.682 901.783 151.522C864.511 133.549 825.196 161.195 791.823 178.61C763.387 193.448 734.841 210.426 704.407 226.451C694.098 231.88 683.747 237.247 673.267 242.31C650.539 253.291 624.376 262.901 602.339 252.095C580.024 241.153 569.768 214.359 558.858 191.09C546.134 163.98 529.86 137.807 507.497 118.216C499.705 111.396 491.098 105.45 481.969 100.734C464.913 91.9001 445.997 87.305 427.208 89.3017C404.643 91.7011 383.865 103.116 364.792 115.424C326.112 140.299 292.021 170.133 262.82 206.088C254.106 216.817 245.833 228.079 238.029 239.928" stroke="#2EA7E0" stroke-width="0.552088" stroke-miterlimit="10"/>
<path d="M994.574 326.05C994.942 280.745 974.728 242.247 942.143 195.823C939.444 191.98 936.797 188.089 934.011 184.345C924.751 171.957 914.358 160.161 901.716 153.953C864.971 135.808 826.336 161.51 792.983 178.151C764.879 192.174 736.563 208.601 706.153 224.284C695.917 229.563 685.65 234.813 675.257 239.767C652.719 250.518 626.886 259.987 605.019 249.838C582.879 239.561 572.336 214.055 561.161 191.919C548.127 166.132 531.675 141.221 509.355 122.566C501.577 116.074 493.015 110.411 483.947 105.923C467.013 97.5114 448.283 93.1201 429.674 95.0004C407.331 97.2615 386.71 108.094 367.764 119.672C329.319 143.062 295.458 170.795 266.173 204.725C257.433 214.849 249.109 225.512 241.224 236.788" stroke="#2EA7E0" stroke-width="0.552088" stroke-miterlimit="10"/>
<path d="M995.866 323.394C996.218 279.901 975.2 244.334 941.756 197.764C939.049 193.996 936.412 190.163 933.638 186.482C924.391 174.279 914.091 162.646 901.645 156.391C865.429 138.072 827.475 161.84 794.141 177.702C766.373 190.915 738.287 206.789 707.897 222.13C697.734 227.261 687.551 232.39 677.245 237.24C654.896 247.757 629.391 257.088 607.697 247.597C585.733 237.987 574.902 213.764 563.465 192.764C550.121 168.299 533.491 144.649 511.215 126.933C503.451 120.766 494.932 115.39 485.927 111.127C469.118 103.138 450.57 98.9526 432.143 100.716C410.022 102.837 389.559 113.09 370.735 123.937C332.527 145.845 298.895 171.474 269.525 203.38C260.76 212.901 252.384 222.964 244.415 233.668" stroke="#2EA7E0" stroke-width="0.552088" stroke-miterlimit="10"/>
<path d="M997.161 320.735C997.498 279.054 975.687 246.41 941.373 199.702C938.661 196.01 936.033 192.237 933.268 188.617C924.035 176.601 913.829 165.13 901.578 158.827C865.891 140.335 828.627 162.17 795.301 177.248C767.875 189.658 740.011 204.972 709.645 219.968C699.558 224.949 689.456 229.961 679.236 234.704C657.076 244.991 631.9 254.181 610.377 245.35C588.588 236.405 577.47 213.471 565.769 193.603C552.114 170.46 535.304 148.072 513.073 131.293C505.323 125.453 496.849 120.361 487.905 116.324C471.22 108.759 452.856 104.775 434.609 106.425C412.71 108.407 392.406 118.078 373.706 128.197C335.734 148.62 302.332 172.149 272.879 202.029C264.088 210.945 255.66 220.407 247.608 230.543" stroke="#2EA7E0" stroke-width="0.552088" stroke-miterlimit="10"/>
<path d="M998.453 318.076C998.776 278.207 976.179 248.48 940.989 201.641C938.27 198.023 935.651 194.309 932.897 190.752C923.677 178.92 913.564 167.612 901.511 161.26C866.351 142.596 829.781 162.505 796.461 176.795C769.38 188.409 741.736 203.16 711.391 217.808C701.377 222.644 691.358 227.535 681.226 232.171C659.255 242.225 634.407 251.277 613.057 243.103C591.443 234.823 580.039 213.177 568.072 194.442C554.106 172.622 537.119 151.495 514.931 135.655C507.196 130.143 498.764 125.334 489.883 121.523C473.32 114.38 455.139 110.603 437.078 112.134C415.4 113.975 395.253 123.066 376.679 132.455C338.943 151.396 305.772 172.821 276.235 200.678C267.419 208.989 258.939 217.852 250.805 227.416" stroke="#2EA7E0" stroke-width="0.552088" stroke-miterlimit="10"/>
<path d="M999.747 315.419C1000.06 277.363 976.684 250.547 940.604 203.58C937.881 200.035 935.27 196.381 932.525 192.885C923.318 181.24 913.3 170.092 901.44 163.694C866.809 144.858 830.939 162.845 797.617 176.339C770.886 187.164 743.46 201.345 713.133 215.645C703.194 220.332 693.257 225.104 683.212 229.634C661.431 239.457 636.912 248.368 615.733 240.852C594.294 233.237 582.603 212.879 570.372 195.277C556.096 174.779 538.93 154.914 516.785 140.01C509.064 134.823 500.675 130.298 491.857 126.715C475.418 119.995 457.42 116.421 439.54 117.838C418.082 119.541 398.096 128.049 379.646 136.708C342.146 154.164 309.205 173.486 279.582 199.319C270.742 207.027 262.209 215.29 253.992 224.282" stroke="#2EA7E0" stroke-width="0.552088" stroke-miterlimit="10"/>
<path d="M1001.04 312.76C1001.33 276.516 977.197 252.602 940.22 205.518C937.493 202.046 934.888 198.455 932.155 195.02C922.96 183.559 913.035 172.573 901.372 166.127C867.271 147.118 832.105 163.194 798.777 175.885C772.403 185.929 745.188 199.532 714.882 213.485C705.018 218.027 695.162 222.678 685.204 227.101C663.612 236.691 639.422 245.466 618.418 238.605C597.153 231.657 585.177 212.583 572.68 196.119C558.093 176.94 540.75 158.339 518.649 144.372C510.942 139.512 502.598 135.272 493.842 131.916C477.527 125.618 459.712 122.248 442.013 123.548C420.777 125.113 400.947 133.04 382.624 140.971C345.36 156.944 312.648 174.162 282.942 197.97C274.076 205.074 265.492 212.738 257.193 221.157" stroke="#2EA7E0" stroke-width="0.552088" stroke-miterlimit="10"/>
<path d="M1002.33 310.104C1002.61 275.672 977.72 254.65 939.835 207.459C937.106 204.06 934.511 200.523 931.782 197.158C922.62 185.862 912.771 175.06 901.303 168.566C867.731 149.382 833.273 163.553 799.937 175.436C773.921 184.709 746.915 197.73 716.628 211.329C706.839 215.725 697.067 220.252 687.193 224.568C665.79 233.928 641.929 242.563 621.096 236.359C600.007 230.075 587.743 212.289 574.983 196.959C560.085 179.102 542.565 161.763 520.507 148.735C512.814 144.202 504.513 140.245 495.82 137.116C479.627 131.242 461.995 128.076 444.481 129.26C423.467 130.684 403.796 138.03 385.597 145.231C348.569 159.72 316.087 174.837 286.298 196.621C277.407 203.121 268.77 210.186 260.388 218.034" stroke="#2EA7E0" stroke-width="0.552088" stroke-miterlimit="10"/>
<path d="M1003.63 307.444C1003.89 274.825 978.255 256.685 939.45 209.397C936.719 206.069 934.131 202.597 931.412 199.292C922.264 188.181 912.506 177.542 901.234 170.999C868.189 151.643 834.447 163.92 801.095 174.98C775.443 183.489 748.641 195.92 718.374 209.167C708.663 213.417 698.97 217.823 689.183 222.033C667.969 231.16 644.436 239.656 623.776 234.11C602.862 228.491 590.312 211.993 577.287 197.796C562.079 181.261 544.38 165.184 522.365 153.092C514.685 148.885 506.431 145.214 497.796 142.31C481.727 136.858 464.278 133.896 446.946 134.964C426.154 136.25 406.641 143.014 388.566 149.484C351.774 162.491 319.523 175.504 289.648 195.263C280.73 201.158 272.043 207.624 263.577 214.9" stroke="#2EA7E0" stroke-width="0.552088" stroke-miterlimit="10"/>
<path d="M1004.92 304.785C1005.17 273.978 978.798 258.711 939.066 211.336C936.333 208.077 933.748 204.669 931.039 201.427C921.906 190.5 912.242 180.024 901.165 173.435C868.649 153.907 835.626 164.295 802.253 174.529C776.967 182.283 750.371 194.117 720.118 207.007C710.482 211.112 700.87 215.397 691.171 219.499C670.147 228.396 646.943 236.752 626.454 231.863C605.715 226.911 592.878 211.699 579.589 198.635C564.069 183.423 546.191 168.607 524.221 157.454C516.555 153.574 508.343 150.187 499.772 147.509C483.827 142.48 466.562 139.721 449.41 140.675C428.84 141.822 409.484 148.004 391.533 153.747C354.977 165.268 322.956 176.181 292.998 193.916C284.056 199.207 275.315 205.074 266.768 211.777" stroke="#2EA7E0" stroke-width="0.552088" stroke-miterlimit="10"/>
<path d="M1006.21 302.129C1006.45 273.134 979.354 260.727 938.683 213.274C935.95 210.086 933.37 206.74 930.671 203.562C921.552 192.819 911.979 182.506 901.098 175.868C869.11 156.168 836.812 164.681 803.413 174.073C778.497 181.079 752.101 192.312 721.864 204.846C712.303 208.808 702.773 212.968 693.161 216.964C672.326 225.628 649.45 233.845 629.134 229.614C608.57 225.327 595.446 211.401 581.892 199.472C566.064 185.582 548.007 172.027 526.081 161.811C518.429 158.259 510.262 155.156 501.752 152.706C485.929 148.098 468.847 145.546 451.881 146.383C431.532 147.39 412.335 152.992 394.508 158.004C358.189 168.044 326.397 176.853 296.355 192.562C287.387 197.247 278.595 202.514 269.965 208.647" stroke="#2EA7E0" stroke-width="0.552088" stroke-miterlimit="10"/>
<path d="M1007.5 299.47C1007.72 272.287 979.917 262.728 938.296 215.213C935.563 212.093 932.985 208.812 930.297 205.697C921.19 195.141 911.7 185.015 901.026 178.304C869.534 158.507 837.996 165.081 804.569 173.621C780.026 179.893 753.828 190.515 723.608 202.686C714.124 206.505 704.674 210.542 695.15 214.431C674.504 222.865 651.957 230.941 631.812 227.367C611.421 223.745 598.012 211.108 584.196 200.311C568.056 187.744 549.822 175.451 527.939 166.173C520.301 162.946 512.177 160.13 503.73 157.905C488.031 153.722 471.132 151.371 454.347 152.092C434.218 152.96 415.18 157.98 397.48 162.262C361.396 170.817 329.834 177.525 299.707 191.211C290.714 195.292 281.87 199.959 273.156 205.523" stroke="#2EA7E0" stroke-width="0.552088" stroke-miterlimit="10"/>
<path d="M1008.8 296.813C1009 271.443 980.491 264.72 937.914 217.154C935.181 214.102 932.604 210.889 929.928 207.835C920.836 197.463 911.44 187.499 900.961 180.742C869.998 160.77 839.189 165.494 805.733 173.173C781.566 178.719 755.564 188.722 725.358 200.532C715.952 204.21 706.581 208.121 697.142 211.904C676.686 220.104 654.467 228.042 634.495 225.128C614.279 222.173 600.585 210.821 586.502 201.158C570.051 189.913 551.639 178.882 529.799 170.54C522.176 167.641 514.095 165.108 505.71 163.109C490.136 159.349 473.42 157.204 456.816 157.808C436.909 158.536 418.03 162.978 400.453 166.53C364.605 173.602 333.271 178.207 303.063 189.867C294.044 193.344 285.15 197.412 276.353 202.403" stroke="#2EA7E0" stroke-width="0.552088" stroke-miterlimit="10"/>
<path d="M1010.09 294.154C1010.28 270.594 981.076 266.698 937.527 219.092C934.796 216.108 932.222 212.961 929.554 209.97C920.473 199.785 911.171 189.981 900.888 183.176C870.452 163.032 840.378 165.919 806.887 172.717C783.099 177.547 757.29 186.924 727.1 198.368C717.771 201.906 708.479 205.688 699.128 209.366C678.861 217.336 656.972 225.136 637.171 222.877C617.13 220.587 603.149 210.523 588.802 201.993C572.041 192.068 553.451 182.298 531.653 174.896C524.044 172.324 516.008 170.075 507.684 168.301C492.232 164.963 475.699 163.022 459.278 163.51C439.593 164.099 420.873 167.959 403.42 170.781C367.808 176.368 336.705 178.87 306.413 188.509C297.369 191.381 288.423 194.85 279.542 199.268" stroke="#2EA7E0" stroke-width="0.552088" stroke-miterlimit="10"/>
<path d="M1011.39 291.495C1011.56 269.747 981.669 268.658 937.144 221.028C934.415 218.109 931.841 215.033 929.185 212.102C920.119 202.102 910.91 192.46 900.823 185.609C870.915 165.29 841.576 166.355 808.048 172.263C784.639 176.387 759.026 185.134 728.848 196.209C719.597 199.605 710.384 203.262 701.12 206.83C681.043 214.567 659.481 222.229 639.853 220.628C619.987 219.002 605.719 210.225 591.107 202.83C574.035 194.227 555.268 185.718 533.515 179.255C525.92 177.008 517.926 175.046 509.666 173.5C494.338 170.584 477.988 168.847 461.751 169.221C442.287 169.672 423.724 172.95 406.397 175.041C371.022 179.146 340.148 179.544 309.77 187.157C300.702 189.425 291.703 192.295 282.739 196.141" stroke="#2EA7E0" stroke-width="0.552088" stroke-miterlimit="10"/>
<path d="M1012.68 288.838C1012.84 268.903 982.274 270.606 936.76 222.969C934.033 220.116 931.459 217.107 928.813 214.24C919.759 204.426 910.644 194.945 900.754 188.045C871.374 167.551 842.773 166.811 809.207 171.809C786.178 175.237 760.758 183.343 730.592 194.047C721.418 197.303 712.287 200.833 703.109 204.295C683.22 211.802 661.986 219.323 642.533 218.379C622.842 217.42 608.287 209.929 593.411 203.667C576.027 196.386 557.081 189.139 535.373 183.612C527.793 181.693 519.844 180.014 511.644 178.695C496.44 176.203 480.274 174.67 464.217 174.924C444.976 175.235 426.571 177.933 409.368 179.296C374.229 181.916 343.585 180.213 313.124 185.801C304.03 187.465 294.98 189.736 285.934 193.009" stroke="#2EA7E0" stroke-width="0.552088" stroke-miterlimit="10"/>
<path d="M1013.97 286.179C1014.12 268.056 982.887 272.537 936.373 224.907C933.65 222.117 931.076 219.179 928.441 216.375C919.399 206.748 910.392 197.405 900.682 190.481C871.866 169.744 843.967 167.284 810.362 171.358C787.714 174.102 762.49 181.557 732.336 191.89C723.24 195.008 714.188 198.409 705.097 201.765C685.398 209.038 664.494 216.421 645.211 216.135C625.695 215.841 610.853 209.637 595.715 204.509C578.022 198.55 558.896 192.565 537.231 187.977C529.665 186.385 521.759 184.99 513.622 183.896C498.541 181.827 482.559 180.497 466.684 180.638C447.662 180.81 429.416 182.926 412.338 183.559C377.434 184.697 347.02 180.89 316.476 184.454C307.357 185.514 298.254 187.184 289.125 189.889" stroke="#2EA7E0" stroke-width="0.552088" stroke-miterlimit="10"/>
<path d="M1015.26 283.523C1015.4 267.212 983.511 274.454 935.991 226.848C933.27 224.124 930.695 221.256 928.07 218.512C919.041 209.072 910.127 199.889 900.615 192.917C872.328 172.006 845.166 167.775 811.524 170.907C789.257 172.979 764.228 179.777 734.084 189.731C725.065 192.71 716.092 195.983 707.087 199.232C687.577 206.275 667.001 213.517 647.891 213.888C628.55 214.259 613.422 209.344 598.018 205.348C580.014 200.712 560.712 195.988 539.089 192.337C531.535 191.07 523.676 189.959 515.6 189.093C500.643 187.446 484.843 186.32 469.152 186.347C450.352 186.381 432.265 187.914 415.311 187.817C380.643 187.47 350.459 181.562 319.83 183.1C310.684 183.557 301.531 184.627 292.32 186.759" stroke="#2EA7E0" stroke-width="0.552088" stroke-miterlimit="10"/>
<path d="M1016.56 280.864C1016.67 266.365 984.142 276.349 935.606 228.784C932.889 226.123 930.313 223.326 927.7 220.645C918.683 211.392 909.865 202.369 900.546 195.35C872.788 174.267 846.361 168.282 812.682 170.451C790.793 171.86 765.962 177.991 735.828 187.569C726.886 190.41 717.993 193.552 709.076 196.696C689.755 203.507 669.508 210.61 650.57 211.639C631.404 212.677 615.99 209.046 600.32 206.185C582.004 202.871 562.525 199.409 540.947 196.696C533.407 195.758 525.591 194.93 517.579 194.292C502.743 193.067 487.128 192.148 471.619 192.055C453.041 191.949 435.112 192.902 418.282 192.075C383.851 190.245 353.897 182.234 323.184 181.749C314.014 181.601 304.807 182.072 295.513 183.632" stroke="#2EA7E0" stroke-width="0.552088" stroke-miterlimit="10"/>
<path d="M1017.85 278.205C1017.95 265.519 984.787 278.227 935.222 230.723C932.509 228.122 929.926 225.405 927.328 222.78C918.308 213.733 909.598 204.851 900.477 197.786C873.246 176.531 847.555 168.811 813.84 169.999C792.33 170.756 767.696 176.218 737.575 185.41C728.712 188.115 719.896 191.126 711.066 194.164C691.934 200.743 672.015 207.706 653.25 209.393C634.259 211.096 618.558 208.752 602.624 207.025C583.999 205.03 564.34 202.832 542.805 201.056C535.28 200.445 527.506 199.901 519.557 199.489C504.845 198.688 489.413 197.97 474.085 197.764C455.729 197.519 437.957 197.89 421.253 196.335C387.058 193.021 357.334 182.909 326.537 180.398C317.341 179.646 308.083 179.517 298.706 180.505" stroke="#2EA7E0" stroke-width="0.552088" stroke-miterlimit="10"/>
<path d="M1019.14 275.548C1019.23 264.674 985.439 280.087 934.837 232.664C932.128 230.126 929.546 227.482 926.957 224.915C917.952 216.054 909.335 207.335 900.41 200.219C873.708 178.792 848.746 169.359 815 169.543C793.864 169.66 769.431 174.439 739.321 183.248C730.535 185.818 721.799 188.697 713.056 191.626C694.114 197.973 674.524 204.8 655.93 207.141C637.114 209.509 621.126 208.453 604.927 207.859C585.991 207.187 566.155 206.25 544.663 205.411C537.152 205.125 529.423 204.868 521.535 204.681C506.947 204.302 491.697 203.79 476.552 203.465C458.417 203.082 440.804 202.871 424.224 200.585C390.265 195.789 360.771 183.573 329.889 179.039C320.668 177.683 311.358 176.955 301.899 177.372" stroke="#2EA7E0" stroke-width="0.552088" stroke-miterlimit="10"/>
<path d="M1020.44 272.889C1020.51 263.827 986.1 281.926 934.454 234.602C931.75 232.125 929.165 229.553 926.587 227.049C917.594 218.374 909.071 209.817 900.341 202.655C874.168 181.055 849.93 169.929 816.158 169.092C795.393 168.577 771.165 172.67 741.067 181.089C732.359 183.525 723.702 186.271 715.044 189.093C696.291 195.209 677.03 201.895 658.608 204.897C639.967 207.929 623.693 208.162 607.231 208.701C587.986 209.351 567.971 209.676 546.521 209.775C539.024 209.817 531.338 209.843 523.513 209.882C509.048 209.926 493.982 209.618 479.02 209.179C461.108 208.655 443.651 207.864 427.198 204.848C393.475 198.567 364.21 184.248 333.245 177.69C324 175.73 314.636 174.402 305.094 174.247" stroke="#2EA7E0" stroke-width="0.552088" stroke-miterlimit="10"/>
<path d="M1021.73 270.232C1021.79 262.983 986.772 283.746 934.068 236.543C931.369 234.127 928.78 231.628 926.214 229.187C917.236 220.698 908.806 212.301 900.271 205.091C874.628 183.316 851.108 170.521 817.318 168.641C796.919 167.505 772.903 170.904 742.813 178.932C734.184 181.235 725.604 183.848 717.035 186.563C698.471 192.446 679.539 198.994 661.288 202.653C642.822 206.352 626.261 207.869 609.535 209.543C589.978 211.515 569.784 213.102 548.379 214.138C540.896 214.507 533.255 214.817 525.489 215.082C511.148 215.547 496.265 215.443 481.485 214.888C463.792 214.225 446.496 212.852 430.167 209.109C396.68 201.345 367.646 184.922 336.597 176.339C327.325 173.774 317.911 171.848 308.285 171.12" stroke="#2EA7E0" stroke-width="0.552088" stroke-miterlimit="10"/>
<path d="M1023.02 267.573C1023.07 262.136 987.451 285.541 933.685 238.479C930.991 236.121 928.402 233.7 925.844 231.32C916.877 223.015 908.542 214.781 900.204 207.524C875.088 185.577 852.281 171.132 818.478 168.185C798.441 166.438 774.641 169.138 744.559 176.768C736.007 178.937 727.509 181.414 719.025 184.025C700.65 189.678 682.046 196.085 663.97 200.401C645.679 204.766 628.831 207.57 611.84 210.377C591.972 213.672 571.601 216.52 550.241 218.495C542.773 219.189 535.174 219.786 527.471 220.278C513.254 221.169 498.553 221.268 483.955 220.596C466.484 219.793 449.347 217.84 433.14 213.366C399.889 204.12 371.085 185.594 339.95 174.987C330.654 171.819 321.187 169.291 311.48 167.993" stroke="#2EA7E0" stroke-width="0.552088" stroke-miterlimit="10"/>
<path d="M1024.32 264.914C1024.34 261.29 988.139 287.315 933.3 240.418C930.612 238.118 928.019 235.772 925.473 233.455C916.521 225.337 908.279 217.265 900.135 209.958C875.547 187.838 853.443 171.765 819.636 167.731C799.955 165.382 776.375 167.379 746.305 174.609C737.833 176.647 729.412 178.988 721.015 181.492C702.83 186.912 684.555 193.181 666.651 198.154C648.534 203.184 631.399 207.277 614.144 211.217C593.966 215.834 573.416 219.943 552.099 222.855C544.645 223.876 537.091 224.757 529.449 225.475C515.354 226.788 500.838 227.091 486.424 226.305C469.175 225.363 452.194 222.828 436.113 217.624C403.098 206.893 374.524 186.266 343.306 173.634C333.984 169.861 324.466 166.734 314.675 164.865" stroke="#2EA7E0" stroke-width="0.552088" stroke-miterlimit="10"/>
<path d="M1025.61 262.257C1025.62 260.445 988.837 289.066 932.914 242.358C930.229 240.117 927.637 237.848 925.099 235.592C916.161 227.658 908.011 219.749 900.064 212.396C876.005 190.104 854.59 172.425 820.792 167.279C801.459 164.336 778.115 165.668 748.047 172.449C739.654 174.369 731.311 176.562 723.001 178.959C705.005 184.148 687.058 190.277 669.327 195.908C651.386 201.604 633.966 206.983 616.444 212.056C595.955 217.995 575.228 223.367 553.953 227.217C546.513 228.566 539.002 229.73 531.423 230.674C517.452 232.409 503.119 232.916 488.886 232.013C471.859 230.934 455.037 227.819 439.08 221.884C406.302 209.671 377.957 186.941 346.656 172.284C337.309 167.908 327.738 164.181 317.866 161.741" stroke="#2EA7E0" stroke-width="0.552088" stroke-miterlimit="10"/>
<path d="M1026.9 259.599C1026.9 259.599 989.545 290.794 932.531 244.297C875.517 197.8 855.891 147.633 749.795 170.29C676.48 185.949 607.317 224.354 533.405 235.871C502.995 240.609 471.124 238.377 442.056 226.142C409.513 212.444 381.399 187.613 350.012 170.931C340.638 165.95 331.019 161.624 321.061 158.611" stroke="#2EA7E0" stroke-width="0.552088" stroke-miterlimit="10"/>
</svg>
